# xmcd
#
# Track frame offsets: 
#        150
#        17504
#        56750
#        90723
#        123964
#        158062
#        195581
#        238823
#        270435
#        303888
#
# Disc length: 4526 seconds
#
# Revision: 3
# Processed by: cddbd v1.5.2PL0 Copyright (c) Steve Scherf et al.
# Submitted via: ExactAudioCopyFreeDBPlugin 1.0
#
DISCID=7711ac0a
DTITLE=Andreas Fröhlich - Eragon [CD12)
DYEAR=2005
DGENRE=Hörbuch
TTITLE0=Wasser aus Sand (Teil 3)
TTITLE1=Der Ramr (Teil 1)
TTITLE2=Der Ramr (Teil 2)
TTITLE3=Die Wüste Hadarac (Teil 1)
TTITLE4=Die Wüste Hadarac (Teil 2)
TTITLE5=Zu neuen Ufern (Teil 1)
TTITLE6=Zu neuen Ufern (Teil 2)
TTITLE7=Zu neuen Ufern (Teil 3)
TTITLE8=Meinungsverschiedenheiten (Teil 1)
TTITLE9=Meinungsverschiedenheiten (Teil 2)
EXTD=
EXTT0=
EXTT1=
EXTT2=
EXTT3=
EXTT4=
EXTT5=
EXTT6=
EXTT7=
EXTT8=
EXTT9=
PLAYORDER=
